<svg width="90" height="91" viewBox="0 0 90 91" fill="none" xmlns="http://www.w3.org/2000/svg">
<path fill-rule="evenodd" clip-rule="evenodd" d="M56.25 23C54.0122 23 51.8661 23.8889 50.2838 25.4713C48.7014 27.0536 47.8125 29.1997 47.8125 31.4375C47.8125 32.9908 46.5533 34.25 45 34.25C43.4467 34.25 42.1875 32.9908 42.1875 31.4375C42.1875 27.7079 43.6691 24.131 46.3063 21.4938C48.9435 18.8566 52.5204 17.375 56.25 17.375H78.75C80.2418 17.375 81.6726 17.9676 82.7275 19.0225C83.7824 20.0774 84.375 21.5082 84.375 23V68C84.375 69.4918 83.7824 70.9226 82.7275 71.9775C81.6726 73.0324 80.2418 73.625 78.75 73.625H56.25C54.0122 73.625 51.8661 74.5139 50.2838 76.0963C48.7014 77.6786 47.8125 79.8247 47.8125 82.0625C47.8125 83.6158 46.5533 84.875 45 84.875C43.4467 84.875 42.1875 83.6158 42.1875 82.0625C42.1875 78.3329 43.6691 74.756 46.3063 72.1188C48.9435 69.4816 52.5204 68 56.25 68H78.75L78.75 23L56.25 23Z" fill="#97D934"/>
<path fill-rule="evenodd" clip-rule="evenodd" d="M7.27252 19.0225C8.32742 17.9676 9.75816 17.375 11.25 17.375H33.75C37.4796 17.375 41.0565 18.8566 43.6937 21.4938C46.3309 24.131 47.8125 27.7079 47.8125 31.4375V82.0625C47.8125 83.6158 46.5533 84.875 45 84.875C43.4467 84.875 42.1875 83.6158 42.1875 82.0625C42.1875 79.8247 41.2986 77.6786 39.7162 76.0963C38.1339 74.5139 35.9878 73.625 33.75 73.625H11.25C9.75816 73.625 8.32742 73.0324 7.27252 71.9775C6.21763 70.9226 5.625 69.4918 5.625 68V23C5.625 21.5082 6.21763 20.0774 7.27252 19.0225ZM42.1875 70.8124V31.4375C42.1875 29.1997 41.2986 27.0536 39.7162 25.4713C38.1339 23.8889 35.9878 23 33.75 23L11.25 23V68H33.75C36.8102 68 39.7676 68.9975 42.1875 70.8124Z" fill="#97D934"/>
</svg>
