<svg width="60" height="60" viewBox="0 0 60 60" fill="none" xmlns="http://www.w3.org/2000/svg">
<path fill-rule="evenodd" clip-rule="evenodd" d="M30 56C44.3594 56 56 44.3594 56 30C56 15.6406 44.3594 4 30 4C15.6406 4 4 15.6406 4 30C4 44.3594 15.6406 56 30 56ZM30 60C46.5685 60 60 46.5685 60 30C60 13.4315 46.5685 0 30 0C13.4315 0 0 13.4315 0 30C0 46.5685 13.4315 60 30 60ZM30 44.1083C37.7916 44.1083 44.1081 37.7919 44.1081 30.0002C44.1081 22.2085 37.7916 15.8921 30 15.8921C22.2083 15.8921 15.8918 22.2085 15.8918 30.0002C15.8918 37.7919 22.2083 44.1083 30 44.1083ZM30 48.1083C40.0008 48.1083 48.1081 40.001 48.1081 30.0002C48.1081 19.9994 40.0008 11.8921 30 11.8921C19.9991 11.8921 11.8918 19.9994 11.8918 30.0002C11.8918 40.001 19.9991 48.1083 30 48.1083ZM30 36.2161C33.4332 36.2161 36.2162 33.433 36.2162 29.9999C36.2162 26.5668 33.4332 23.7837 30 23.7837C26.5669 23.7837 23.7838 26.5668 23.7838 29.9999C23.7838 33.433 26.5669 36.2161 30 36.2161Z" fill="#97D934"/>
</svg>
