<svg width="63" height="62" viewBox="0 0 63 62" fill="none" xmlns="http://www.w3.org/2000/svg">
<path fill-rule="evenodd" clip-rule="evenodd" d="M25.4847 4.78667C24.7036 5.56772 24.7036 6.83405 25.4847 7.6151C26.2657 8.39615 27.532 8.39615 28.3131 7.6151L29.5253 6.40285V19.6646C27.99 19.9477 26.5667 20.5509 25.3274 21.4024L19.4595 15.5346H19.559C20.6636 15.5346 21.559 14.6391 21.559 13.5346C21.559 12.43 20.6636 11.5346 19.559 11.5346H15.6192C13.9624 11.5346 12.6192 12.8777 12.6192 14.5346V18.4743C12.6192 19.5789 13.5147 20.4743 14.6192 20.4743C15.7238 20.4743 16.6192 19.5789 16.6192 18.4743V18.3511L22.4969 24.2287C21.609 25.5169 20.9897 27.0044 20.7198 28.6106L7.31742 28.6106L8.50694 27.421C9.28799 26.64 9.28799 25.3737 8.50694 24.5926C7.72589 23.8116 6.45957 23.8116 5.67852 24.5926L1.77053 28.5006C0.598952 29.6722 0.598953 31.5717 1.77053 32.7432L5.67852 36.6512C6.45957 37.4323 7.7259 37.4323 8.50694 36.6512C9.28799 35.8702 9.28799 34.6039 8.50694 33.8228L7.2947 32.6106H20.7829C21.1022 34.1989 21.765 35.663 22.6904 36.922L16.6192 42.9933V42.8944C16.6192 41.7899 15.7237 40.8944 14.6192 40.8944C13.5146 40.8944 12.6192 41.7899 12.6192 42.8944L12.6192 46.8342C12.6192 48.491 13.9623 49.8342 15.6192 49.8342H19.5589C20.6635 49.8342 21.5589 48.9388 21.5589 47.8342C21.5589 46.7296 20.6635 45.8342 19.5589 45.8342H19.4351L25.6069 39.6623C26.7728 40.4119 28.09 40.9465 29.5026 41.2101L29.5026 54.8196L28.313 53.6299C27.532 52.8489 26.2656 52.8489 25.4846 53.6299C24.7035 54.411 24.7035 55.6773 25.4846 56.4584L29.3926 60.3663C30.5641 61.5379 32.4636 61.5379 33.6352 60.3663L37.5432 56.4584C38.3242 55.6773 38.3242 54.411 37.5432 53.6299C36.7621 52.8489 35.4958 52.8489 34.7148 53.6299L33.5026 54.8421L33.5026 41.2182C34.9866 40.9476 36.3662 40.3781 37.5769 39.5744L43.8365 45.834H43.7367C42.6321 45.834 41.7367 46.7294 41.7367 47.834C41.7367 48.9386 42.6321 49.834 43.7367 49.834H47.6765C49.3333 49.834 50.6765 48.4909 50.6765 46.834V42.8942C50.6765 41.7897 49.781 40.8942 48.6765 40.8942C47.5719 40.8942 46.6765 41.7897 46.6765 42.8942V43.0171L40.4523 36.793C41.3245 35.5696 41.9515 34.1594 42.2616 32.634L55.7105 32.634L54.5209 33.8235C53.7399 34.6046 53.7399 35.8709 54.5209 36.6519C55.302 37.433 56.5683 37.433 57.3494 36.6519L61.2573 32.7439C62.4289 31.5724 62.4289 29.6729 61.2573 28.5013L57.3494 24.5933C56.5683 23.8123 55.302 23.8123 54.5209 24.5933C53.7399 25.3744 53.7399 26.6407 54.5209 27.4217L55.7332 28.634L42.3334 28.634C42.0767 27.0856 41.4953 25.6469 40.6616 24.3901L46.6764 18.3753V18.4746C46.6764 19.5792 47.5718 20.4746 48.6764 20.4746C49.781 20.4746 50.6764 19.5792 50.6764 18.4746V14.5349C50.6764 12.878 49.3333 11.5349 47.6764 11.5349H43.7367C42.6321 11.5349 41.7367 12.4303 41.7367 13.5349C41.7367 14.6394 42.6321 15.5349 43.7367 15.5349H43.86L37.8811 21.5138C36.6054 20.6037 35.1264 19.9603 33.5253 19.6649V6.42558L34.7149 7.6151C35.4959 8.39615 36.7622 8.39615 37.5433 7.6151C38.3243 6.83405 38.3243 5.56772 37.5433 4.78667L33.6353 0.87868C32.4637 -0.292894 30.5642 -0.292892 29.3927 0.87868L25.4847 4.78667ZM31.5246 37.3962C35.3668 37.3962 38.4815 34.2816 38.4815 30.4394C38.4815 26.5973 35.3668 23.4826 31.5246 23.4826C27.6825 23.4826 24.5678 26.5973 24.5678 30.4394C24.5678 34.2816 27.6825 37.3962 31.5246 37.3962Z" fill="#97D934"/>
</svg>
