<svg width="90" height="91" viewBox="0 0 90 91" fill="none" xmlns="http://www.w3.org/2000/svg">
<path fill-rule="evenodd" clip-rule="evenodd" d="M45 14.5625C27.9137 14.5625 14.0625 28.4137 14.0625 45.5C14.0625 62.5863 27.9137 76.4375 45 76.4375C62.0863 76.4375 75.9375 62.5863 75.9375 45.5C75.9375 28.4137 62.0863 14.5625 45 14.5625ZM8.4375 45.5C8.4375 25.3071 24.8071 8.9375 45 8.9375C65.1929 8.9375 81.5625 25.3071 81.5625 45.5C81.5625 65.6929 65.1929 82.0625 45 82.0625C24.8071 82.0625 8.4375 65.6929 8.4375 45.5Z" fill="#97D934"/>
<path fill-rule="evenodd" clip-rule="evenodd" d="M39.375 42.6875C39.375 41.1342 40.6342 39.875 42.1875 39.875H45C46.5533 39.875 47.8125 41.1342 47.8125 42.6875V59.5625C49.3658 59.5625 50.625 60.8217 50.625 62.375C50.625 63.9283 49.3658 65.1875 47.8125 65.1875H45C43.4467 65.1875 42.1875 63.9283 42.1875 62.375V45.5C40.6342 45.5 39.375 44.2408 39.375 42.6875Z" fill="#97D934"/>
<path d="M44.2969 34.25C46.6268 34.25 48.5156 32.3612 48.5156 30.0312C48.5156 27.7013 46.6268 25.8125 44.2969 25.8125C41.9669 25.8125 40.0781 27.7013 40.0781 30.0312C40.0781 32.3612 41.9669 34.25 44.2969 34.25Z" fill="#97D934"/>
</svg>
