<svg width="69" height="60" viewBox="0 0 69 60" fill="none" xmlns="http://www.w3.org/2000/svg">
<path fill-rule="evenodd" clip-rule="evenodd" d="M6 0C2.68629 0 0 2.68629 0 6V31.3683C0 34.682 2.68629 37.3683 6 37.3683H18.1459C19.2505 37.3683 20.1459 36.4729 20.1459 35.3683C20.1459 34.2637 19.2505 33.3683 18.1459 33.3683H6C4.89543 33.3683 4 32.4729 4 31.3683V6C4 4.89543 4.89543 4 6 4H43.2087C44.3132 4 45.2087 4.89543 45.2087 6V20.8369C45.2087 21.9415 46.1041 22.8369 47.2087 22.8369C48.3132 22.8369 49.2087 21.9415 49.2087 20.8369V6C49.2087 2.68629 46.5224 0 43.2087 0H6ZM26.9897 29.6807H64.1984L64.1984 55.049L26.9897 55.049V29.6807ZM22.9897 29.6807C22.9897 27.4715 24.7806 25.6807 26.9897 25.6807H64.1984C66.4075 25.6807 68.1984 27.4715 68.1984 29.6807V55.049C68.1984 57.2581 66.4075 59.049 64.1984 59.049H26.9897C24.7806 59.049 22.9897 57.2581 22.9897 55.049V29.6807ZM51.8961 35.5687C51.1151 34.7876 49.8488 34.7876 49.0677 35.5687C48.2867 36.3497 48.2867 37.6161 49.0677 38.3971L50.8137 40.1431H33.7537C32.6491 40.1431 31.7537 41.0385 31.7537 42.1431C31.7537 43.2476 32.6491 44.1431 33.7537 44.1431H50.7877L49.0677 45.8631C48.2867 46.6441 48.2867 47.9105 49.0677 48.6915C49.8488 49.4726 51.1151 49.4726 51.8961 48.6915L56.3362 44.2514C57.5078 43.0799 57.5078 41.1804 56.3362 40.0088L51.8961 35.5687ZM20.1789 25.0104C19.3978 25.7915 18.1315 25.7915 17.3504 25.0104L12.9103 20.5703C11.7388 19.3987 11.7388 17.4993 12.9103 16.3277L17.3504 11.8876C18.1315 11.1065 19.3978 11.1065 20.1789 11.8876C20.9599 12.6686 20.9599 13.935 20.1789 14.716L18.4588 16.436L35.4928 16.436C36.5974 16.436 37.4928 17.3315 37.4928 18.436C37.4928 19.5406 36.5974 20.436 35.4928 20.436L18.4329 20.436L20.1789 22.182C20.9599 22.963 20.9599 24.2294 20.1789 25.0104Z" fill="#97D934"/>
</svg>
