<svg
  width="90"
  height="91"
  viewBox="0 0 90 91"
  fill="none"
  xmlns="http://www.w3.org/2000/svg"
>
  <path
    fill-rule="evenodd"
    clip-rule="evenodd"
    d="M45 14.5625C27.9137 14.5625 14.0625 28.4137 14.0625 45.5C14.0625 62.5863 27.9137 76.4375 45 76.4375C62.0863 76.4375 75.9375 62.5863 75.9375 45.5C75.9375 28.4137 62.0863 14.5625 45 14.5625ZM8.4375 45.5C8.4375 25.3071 24.8071 8.9375 45 8.9375C65.1929 8.9375 81.5625 25.3071 81.5625 45.5C81.5625 65.6929 65.1929 82.0625 45 82.0625C24.8071 82.0625 8.4375 65.6929 8.4375 45.5Z"
    fill="#97D934"
  />
  <path
    d="M45 68C47.33 68 49.2188 66.1112 49.2188 63.7812C49.2188 61.4513 47.33 59.5625 45 59.5625C42.67 59.5625 40.7812 61.4513 40.7812 63.7812C40.7812 66.1112 42.67 68 45 68Z"
    fill="#97D934"
  />
  <path
    fill-rule="evenodd"
    clip-rule="evenodd"
    d="M40.1567 26.7759C42.4693 25.818 45.014 25.5673 47.4691 26.0557C49.9242 26.544 52.1793 27.7494 53.9493 29.5194C55.7193 31.2894 56.9247 33.5446 57.4131 35.9996C57.9014 38.4547 57.6508 40.9995 56.6928 43.3121C55.7349 45.6247 54.1127 47.6014 52.0314 48.992C50.7411 49.8542 49.3102 50.4672 47.8125 50.8086V51.125C47.8125 52.6783 46.5533 53.9375 45 53.9375C43.4467 53.9375 42.1875 52.6783 42.1875 51.125V48.3125C42.1875 47.5666 42.4838 46.8512 43.0113 46.3238C43.5387 45.7963 44.2541 45.5 45 45.5C46.3906 45.5 47.7501 45.0876 48.9064 44.315C50.0626 43.5424 50.9638 42.4443 51.496 41.1595C52.0282 39.8747 52.1674 38.461 51.8961 37.097C51.6248 35.7331 50.9552 34.4803 49.9718 33.4969C48.9885 32.5136 47.7357 31.8439 46.3717 31.5726C45.0078 31.3013 43.5941 31.4405 42.3093 31.9727C41.0245 32.5049 39.9263 33.4061 39.1537 34.5624C38.3811 35.7187 37.9687 37.0781 37.9687 38.4688C37.9687 40.0221 36.7096 41.2813 35.1562 41.2813C33.6029 41.2813 32.3438 40.0221 32.3438 38.4688C32.3438 35.9656 33.086 33.5186 34.4767 31.4373C35.8674 29.356 37.844 27.7338 40.1567 26.7759Z"
    fill="#97D934"
  />
</svg>
