<svg width="90" height="91" viewBox="0 0 90 91" fill="none" xmlns="http://www.w3.org/2000/svg">
  <path d="M80.7398 21.0104L69.4898 9.76042C69.2286 9.49892 68.9185 9.29147 68.577 9.14993C68.2356 9.0084 67.8696 8.93555 67.5 8.93555C67.1304 8.93555 66.7644 9.0084 66.423 9.14993C66.0815 9.29147 65.7714 9.49892 65.5102 9.76042L31.7602 43.5104C31.4991 43.7718 31.292 44.0821 31.1509 44.4235C31.0097 44.7649 30.9372 45.1308 30.9375 45.5003V56.7503C30.9375 57.4962 31.2338 58.2116 31.7613 58.739C32.2887 59.2664 33.0041 59.5628 33.75 59.5628H45C45.3695 59.563 45.7353 59.4905 46.0768 59.3494C46.4182 59.2082 46.7285 59.0012 46.9898 58.7401L80.7398 24.9901C81.0013 24.7289 81.2088 24.4187 81.3503 24.0773C81.4919 23.7358 81.5647 23.3699 81.5647 23.0003C81.5647 22.6307 81.4919 22.2647 81.3503 21.9232C81.2088 21.5818 81.0013 21.2716 80.7398 21.0104ZM43.8363 53.9378H36.5625V46.6639L59.0625 24.1639L66.3363 31.4378L43.8363 53.9378ZM70.3125 27.4616L63.0387 20.1878L67.5 15.7264L74.7738 23.0003L70.3125 27.4616ZM78.75 42.6878V73.6253C78.75 75.1171 78.1574 76.5478 77.1025 77.6027C76.0476 78.6576 74.6168 79.2503 73.125 79.2503H16.875C15.3832 79.2503 13.9524 78.6576 12.8975 77.6027C11.8426 76.5478 11.25 75.1171 11.25 73.6253V17.3753C11.25 15.8834 11.8426 14.4527 12.8975 13.3978C13.9524 12.3429 15.3832 11.7503 16.875 11.7503H47.8125C48.5584 11.7503 49.2738 12.0466 49.8012 12.574C50.3287 13.1015 50.625 13.8168 50.625 14.5628C50.625 15.3087 50.3287 16.0241 49.8012 16.5515C49.2738 17.0789 48.5584 17.3753 47.8125 17.3753H16.875V73.6253H73.125V42.6878C73.125 41.9418 73.4213 41.2265 73.9488 40.699C74.4762 40.1716 75.1916 39.8753 75.9375 39.8753C76.6834 39.8753 77.3988 40.1716 77.9262 40.699C78.4537 41.2265 78.75 41.9418 78.75 42.6878Z" fill="#97D934"/>
</svg>
