<svg width="48" height="48" viewBox="0 0 48 48" fill="none" xmlns="http://www.w3.org/2000/svg">
<g clip-path="url(#clip0_781_2860)">
<path d="M25.6812 35H22.3188C21.7391 35 21.2754 34.6667 21.1594 34.1111L20.5797 32.1111L20.1159 31.8889L18.2609 32.8889C17.7971 33.1111 17.2174 33.1111 16.8696 32.6667L14.4348 30.3333C14.087 30 13.971 29.4444 14.2029 29L15.2464 27.2222L15.0145 26.7778L12.9275 26.2222C12.4638 26.1111 12 25.6667 12 25.1111V21.8889C12 21.3333 12.3478 20.8889 12.9275 20.7778L15.0145 20.2222L15.2464 19.7778L14.2029 18C13.971 17.5556 13.971 17 14.4348 16.6667L16.8696 14.3333C17.2174 14 17.7971 13.8889 18.2609 14.1111L20.1159 15.1111L20.5797 14.8889L21.1594 12.8889C21.2754 12.4444 21.7391 12 22.3188 12H25.6812C26.2609 12 26.7246 12.3333 26.8406 12.8889L27.4203 14.8889L27.8841 15.1111L29.7391 14.1111C30.2029 13.8889 30.7826 13.8889 31.1304 14.3333L33.5652 16.6667C33.913 17 34.029 17.5556 33.7971 18L32.7536 19.7778L32.9855 20.2222L35.0725 20.7778C35.5362 20.8889 36 21.3333 36 21.8889V25.1111C36 25.6667 35.6522 26.1111 35.0725 26.2222L32.9855 26.7778L32.7536 27.2222L33.7971 29C34.029 29.4444 34.029 30 33.5652 30.3333L31.1304 32.6667C30.7826 33 30.2029 33.1111 29.7391 32.8889L27.8841 31.8889L27.4203 32.1111L26.8406 34.1111C26.6087 34.6667 26.1449 35 25.6812 35ZM23.1304 32.7778H24.7536L25.3333 30.4444L25.913 30.2222C26.3768 30.1111 26.7246 29.8889 27.1884 29.7778L27.7681 29.4444L29.971 30.6667L31.1304 29.5556L29.8551 27.4444L30.2029 26.8889C30.4348 26.5556 30.5507 26.1111 30.6667 25.6667L30.8986 25.1111L33.3333 24.5556V23L30.8986 22.4444L30.6667 21.8889C30.5507 21.4444 30.3188 21.1111 30.2029 20.6667L29.8551 20.1111L31.1304 18L29.971 16.8889L27.7681 18.1111L27.1884 17.7778C26.8406 17.5556 26.3768 17.4444 25.913 17.3333L25.3333 17.1111L24.7536 14.7778H23.1304L22.5507 17.1111L21.971 17.3333C21.5072 17.4444 21.1594 17.6667 20.6957 17.7778L20.1159 18.1111L17.913 16.8889L16.7536 18L18.029 20.1111L17.6812 20.6667C17.4493 21 17.3333 21.4444 17.2174 21.8889L16.9855 22.4444L14.5507 23V24.5556L16.9855 25.1111L17.2174 25.6667C17.3333 26.1111 17.5652 26.4444 17.6812 26.8889L18.029 27.4444L16.7536 29.5556L17.913 30.6667L20.1159 29.4444L20.6957 29.7778C21.0435 30 21.5072 30.1111 21.971 30.2222L22.5507 30.4444L23.1304 32.7778Z" fill="#97D934"/>
<path d="M24 29C21.2093 29 19 26.7907 19 24C19 21.2093 21.2093 19 24 19C26.7907 19 29 21.2093 29 24C29 26.7907 26.7907 29 24 29ZM24 21.3256C22.4884 21.3256 21.3256 22.4884 21.3256 24C21.3256 25.5116 22.4884 26.6744 24 26.6744C25.5116 26.6744 26.6744 25.5116 26.6744 24C26.6744 22.4884 25.5116 21.3256 24 21.3256Z" fill="#97D934"/>
<path d="M23.9993 2.6665C23.1994 2.6665 22.666 3.19984 22.666 3.99984C22.666 4.79984 23.1994 5.33317 23.9993 5.33317C34.266 5.33317 42.666 13.7332 42.666 23.9998C42.666 34.2665 34.266 42.6665 23.9993 42.6665C13.7327 42.6665 5.33268 34.2665 5.33268 23.9998C5.33268 20.2665 6.39935 16.6665 8.53268 13.5998V15.1998C8.53268 15.9998 9.06602 16.5332 9.86602 16.5332C10.666 16.5332 11.1993 15.9998 11.1993 15.1998V8.53317H4.53268C3.73268 8.53317 3.19935 9.0665 3.19935 9.8665C3.19935 10.6665 3.73268 11.1998 4.53268 11.1998H6.93268C4.13268 14.7998 2.66602 19.3332 2.66602 23.9998C2.66602 35.7332 12.266 45.3332 23.9993 45.3332C35.7327 45.3332 45.3327 35.7332 45.3327 23.9998C45.3327 12.2665 35.7327 2.6665 23.9993 2.6665Z" fill="#97D934"/>
</g>
<defs>
<clipPath id="clip0_781_2860">
<rect width="48" height="48" fill="white"/>
</clipPath>
</defs>
</svg>
